<svg width="16" height="20" viewBox="0 0 16 20" fill="none" xmlns="http://www.w3.org/2000/svg">
<path d="M13.2072 11.1747C12.5522 12.5019 11.6656 13.8251 10.7572 15.0126C9.85165 16.1963 8.94303 17.221 8.2596 17.9506C8.16879 18.0475 8.08207 18.1391 8 18.2251C7.91793 18.1391 7.83121 18.0475 7.7404 17.9506C7.05697 17.221 6.14835 16.1963 5.24281 15.0126C4.33443 13.8251 3.44781 12.5019 2.79279 11.1747C2.13101 9.83384 1.75 8.57738 1.75 7.5C1.75 4.04822 4.54822 1.25 8 1.25C11.4518 1.25 14.25 4.04822 14.25 7.5C14.25 8.57738 13.869 9.83384 13.2072 11.1747ZM8 20C8 20 15.5 12.8921 15.5 7.5C15.5 3.35786 12.1421 0 8 0C3.85786 0 0.5 3.35786 0.5 7.5C0.5 12.8921 8 20 8 20Z" fill="black"/>
<path d="M8 10C6.61929 10 5.5 8.88071 5.5 7.5C5.5 6.11929 6.61929 5 8 5C9.38071 5 10.5 6.11929 10.5 7.5C10.5 8.88071 9.38071 10 8 10ZM8 11.25C10.0711 11.25 11.75 9.57107 11.75 7.5C11.75 5.42893 10.0711 3.75 8 3.75C5.92893 3.75 4.25 5.42893 4.25 7.5C4.25 9.57107 5.92893 11.25 8 11.25Z" fill="black"/>
</svg>
